<mxfile host="app.diagrams.net" modified="2020-12-03T01:11:11.976Z" agent="5.0 (Windows)" etag="2JTyKS1jOwMbw0ir1FGM" version="13.10.6" type="github">
  <diagram id="8QGsJyatxv-ushCV1igj" name="Page-1">
    <mxGraphModel dx="975" dy="587" grid="1" gridSize="10" guides="1" tooltips="1" connect="1" arrows="1" fold="1" page="1" pageScale="1" pageWidth="827" pageHeight="1169" math="0" shadow="0">
      <root>
        <mxCell id="0" />
        <mxCell id="1" parent="0" />
        <mxCell id="14146tq5jMcz0m6GexRM-1" value="Actor" style="shape=umlActor;verticalLabelPosition=bottom;verticalAlign=top;html=1;" vertex="1" parent="1">
          <mxGeometry x="140" y="120" width="30" height="60" as="geometry" />
        </mxCell>
        <mxCell id="14146tq5jMcz0m6GexRM-2" value="frame" style="shape=umlFrame;whiteSpace=wrap;html=1;" vertex="1" parent="1">
          <mxGeometry x="300" y="10" width="410" height="430" as="geometry" />
        </mxCell>
      </root>
    </mxGraphModel>
  </diagram>
</mxfile>
